<svg xmlns="http://www.w3.org/2000/svg" xmlns:xlink="http://www.w3.org/1999/xlink" width="600" zoomAndPan="magnify" viewBox="0 0 450 299.999988" height="400" preserveAspectRatio="xMidYMid meet" version="1.0"><defs><g/></defs><g fill="#ffffff" fill-opacity="1"><g transform="translate(164.110412, 195.571669)"><g><path d="M 6.078125 -6.59375 C 4.398438 -7.070312 3.179688 -7.660156 2.421875 -8.359375 C 1.660156 -9.054688 1.28125 -9.921875 1.28125 -10.953125 C 1.28125 -12.117188 1.742188 -13.082031 2.671875 -13.84375 C 3.609375 -14.601562 4.820312 -14.984375 6.3125 -14.984375 C 7.320312 -14.984375 8.222656 -14.785156 9.015625 -14.390625 C 9.816406 -14.003906 10.4375 -13.460938 10.875 -12.765625 C 11.3125 -12.078125 11.53125 -11.328125 11.53125 -10.515625 L 9.5625 -10.515625 C 9.5625 -11.398438 9.273438 -12.097656 8.703125 -12.609375 C 8.140625 -13.128906 7.34375 -13.390625 6.3125 -13.390625 C 5.34375 -13.390625 4.585938 -13.175781 4.046875 -12.75 C 3.515625 -12.320312 3.25 -11.734375 3.25 -10.984375 C 3.25 -10.378906 3.503906 -9.867188 4.015625 -9.453125 C 4.523438 -9.035156 5.394531 -8.65625 6.625 -8.3125 C 7.851562 -7.96875 8.8125 -7.585938 9.5 -7.171875 C 10.195312 -6.753906 10.710938 -6.269531 11.046875 -5.71875 C 11.390625 -5.164062 11.5625 -4.507812 11.5625 -3.75 C 11.5625 -2.550781 11.09375 -1.59375 10.15625 -0.875 C 9.21875 -0.15625 7.96875 0.203125 6.40625 0.203125 C 5.394531 0.203125 4.445312 0.0078125 3.5625 -0.375 C 2.6875 -0.769531 2.007812 -1.304688 1.53125 -1.984375 C 1.050781 -2.660156 0.8125 -3.425781 0.8125 -4.28125 L 2.765625 -4.28125 C 2.765625 -3.382812 3.09375 -2.675781 3.75 -2.15625 C 4.414062 -1.644531 5.300781 -1.390625 6.40625 -1.390625 C 7.4375 -1.390625 8.222656 -1.597656 8.765625 -2.015625 C 9.316406 -2.441406 9.59375 -3.015625 9.59375 -3.734375 C 9.59375 -4.460938 9.335938 -5.023438 8.828125 -5.421875 C 8.328125 -5.816406 7.410156 -6.207031 6.078125 -6.59375 Z M 6.078125 -6.59375 "/></g></g></g><g fill="#ffffff" fill-opacity="1"><g transform="translate(177.070544, 195.571669)"><g><path d="M 13.09375 -6.921875 C 13.09375 -5.472656 12.847656 -4.207031 12.359375 -3.125 C 11.867188 -2.039062 11.175781 -1.210938 10.28125 -0.640625 C 9.394531 -0.078125 8.351562 0.203125 7.15625 0.203125 C 5.988281 0.203125 4.957031 -0.0820312 4.0625 -0.65625 C 3.164062 -1.226562 2.46875 -2.039062 1.96875 -3.09375 C 1.46875 -4.15625 1.210938 -5.382812 1.203125 -6.78125 L 1.203125 -7.84375 C 1.203125 -9.269531 1.445312 -10.523438 1.9375 -11.609375 C 2.4375 -12.703125 3.132812 -13.535156 4.03125 -14.109375 C 4.9375 -14.691406 5.972656 -14.984375 7.140625 -14.984375 C 8.328125 -14.984375 9.367188 -14.695312 10.265625 -14.125 C 11.171875 -13.550781 11.867188 -12.722656 12.359375 -11.640625 C 12.847656 -10.554688 13.09375 -9.289062 13.09375 -7.84375 Z M 11.15625 -7.875 C 11.15625 -9.625 10.800781 -10.96875 10.09375 -11.90625 C 9.382812 -12.84375 8.398438 -13.3125 7.140625 -13.3125 C 5.910156 -13.3125 4.941406 -12.84375 4.234375 -11.90625 C 3.523438 -10.96875 3.160156 -9.664062 3.140625 -8 L 3.140625 -6.921875 C 3.140625 -5.210938 3.492188 -3.875 4.203125 -2.90625 C 4.921875 -1.9375 5.90625 -1.453125 7.15625 -1.453125 C 8.414062 -1.453125 9.390625 -1.910156 10.078125 -2.828125 C 10.773438 -3.742188 11.132812 -5.054688 11.15625 -6.765625 Z M 11.15625 -7.875 "/></g></g></g><g fill="#ffffff" fill-opacity="1"><g transform="translate(191.990243, 195.571669)"><g><path d="M 3.671875 -1.59375 L 10.6875 -1.59375 L 10.6875 0 L 1.71875 0 L 1.71875 -14.78125 L 3.671875 -14.78125 Z M 3.671875 -1.59375 "/></g></g></g><g fill="#ffffff" fill-opacity="1"><g transform="translate(203.803065, 195.571669)"><g><path d="M 9.875 -3.859375 L 3.6875 -3.859375 L 2.296875 0 L 0.28125 0 L 5.9375 -14.78125 L 7.640625 -14.78125 L 13.296875 0 L 11.296875 0 Z M 4.28125 -5.46875 L 9.296875 -5.46875 L 6.78125 -12.375 Z M 4.28125 -5.46875 "/></g></g></g><g fill="#ffffff" fill-opacity="1"><g transform="translate(217.991732, 195.571669)"><g><path d="M 7.140625 -5.984375 L 3.671875 -5.984375 L 3.671875 0 L 1.703125 0 L 1.703125 -14.78125 L 6.59375 -14.78125 C 8.257812 -14.78125 9.539062 -14.398438 10.4375 -13.640625 C 11.34375 -12.890625 11.796875 -11.789062 11.796875 -10.34375 C 11.796875 -9.414062 11.546875 -8.609375 11.046875 -7.921875 C 10.546875 -7.242188 9.851562 -6.734375 8.96875 -6.390625 L 12.4375 -0.125 L 12.4375 0 L 10.34375 0 Z M 3.671875 -7.578125 L 6.65625 -7.578125 C 7.625 -7.578125 8.394531 -7.828125 8.96875 -8.328125 C 9.539062 -8.828125 9.828125 -9.5 9.828125 -10.34375 C 9.828125 -11.25 9.550781 -11.945312 9 -12.4375 C 8.457031 -12.925781 7.675781 -13.175781 6.65625 -13.1875 L 3.671875 -13.1875 Z M 3.671875 -7.578125 "/></g></g></g><g fill="#ffffff" fill-opacity="1"><g transform="translate(231.41891, 195.571669)"><g><path d="M 11.9375 -13.1875 L 7.171875 -13.1875 L 7.171875 0 L 5.234375 0 L 5.234375 -13.1875 L 0.5 -13.1875 L 0.5 -14.78125 L 11.9375 -14.78125 Z M 11.9375 -13.1875 "/></g></g></g><g fill="#ffffff" fill-opacity="1"><g transform="translate(244.450118, 195.571669)"><g><path d="M 10.078125 -6.828125 L 3.671875 -6.828125 L 3.671875 -1.59375 L 11.109375 -1.59375 L 11.109375 0 L 1.71875 0 L 1.71875 -14.78125 L 11 -14.78125 L 11 -13.1875 L 3.671875 -13.1875 L 3.671875 -8.421875 L 10.078125 -8.421875 Z M 10.078125 -6.828125 "/></g></g></g><g fill="#ffffff" fill-opacity="1"><g transform="translate(256.892435, 195.571669)"><g><path d="M 12.59375 -4.6875 C 12.40625 -3.125 11.828125 -1.914062 10.859375 -1.0625 C 9.890625 -0.21875 8.597656 0.203125 6.984375 0.203125 C 5.234375 0.203125 3.832031 -0.421875 2.78125 -1.671875 C 1.726562 -2.921875 1.203125 -4.597656 1.203125 -6.703125 L 1.203125 -8.125 C 1.203125 -9.5 1.445312 -10.707031 1.9375 -11.75 C 2.4375 -12.789062 3.132812 -13.585938 4.03125 -14.140625 C 4.925781 -14.703125 5.96875 -14.984375 7.15625 -14.984375 C 8.726562 -14.984375 9.988281 -14.546875 10.9375 -13.671875 C 11.882812 -12.796875 12.4375 -11.582031 12.59375 -10.03125 L 10.625 -10.03125 C 10.457031 -11.207031 10.09375 -12.0625 9.53125 -12.59375 C 8.96875 -13.125 8.175781 -13.390625 7.15625 -13.390625 C 5.914062 -13.390625 4.941406 -12.925781 4.234375 -12 C 3.523438 -11.082031 3.171875 -9.773438 3.171875 -8.078125 L 3.171875 -6.640625 C 3.171875 -5.035156 3.503906 -3.757812 4.171875 -2.8125 C 4.835938 -1.863281 5.773438 -1.390625 6.984375 -1.390625 C 8.066406 -1.390625 8.894531 -1.632812 9.46875 -2.125 C 10.050781 -2.613281 10.4375 -3.46875 10.625 -4.6875 Z M 12.59375 -4.6875 "/></g></g></g><g fill="#ffffff" fill-opacity="1"><g transform="translate(271.050643, 195.571669)"><g><path d="M 13.078125 0 L 11.125 0 L 11.125 -6.828125 L 3.671875 -6.828125 L 3.671875 0 L 1.71875 0 L 1.71875 -14.78125 L 3.671875 -14.78125 L 3.671875 -8.421875 L 11.125 -8.421875 L 11.125 -14.78125 L 13.078125 -14.78125 Z M 13.078125 0 "/></g></g></g><g fill="#ffffff" fill-opacity="1"><g transform="translate(154.224064, 207.771648)"><g><path d="M 1.3125 0 L 0.640625 0 L 0.640625 -5.125 L 1.3125 -5.125 Z M 1.3125 0 "/></g></g></g><g fill="#ffffff" fill-opacity="1"><g transform="translate(157.622279, 207.771648)"><g><path d="M 4.53125 0 L 3.84375 0 L 1.265625 -3.953125 L 1.265625 0 L 0.59375 0 L 0.59375 -5.125 L 1.265625 -5.125 L 3.859375 -1.15625 L 3.859375 -5.125 L 4.53125 -5.125 Z M 4.53125 0 "/></g></g></g><g fill="#ffffff" fill-opacity="1"><g transform="translate(164.195103, 207.771648)"><g><path d="M 4.53125 0 L 3.84375 0 L 1.265625 -3.953125 L 1.265625 0 L 0.59375 0 L 0.59375 -5.125 L 1.265625 -5.125 L 3.859375 -1.15625 L 3.859375 -5.125 L 4.53125 -5.125 Z M 4.53125 0 "/></g></g></g><g fill="#ffffff" fill-opacity="1"><g transform="translate(170.767928, 207.771648)"><g><path d="M 4.53125 -2.390625 C 4.53125 -1.890625 4.445312 -1.453125 4.28125 -1.078125 C 4.113281 -0.703125 3.875 -0.414062 3.5625 -0.21875 C 3.25 -0.0195312 2.890625 0.078125 2.484375 0.078125 C 2.078125 0.078125 1.71875 -0.0195312 1.40625 -0.21875 C 1.09375 -0.425781 0.847656 -0.710938 0.671875 -1.078125 C 0.503906 -1.441406 0.421875 -1.863281 0.421875 -2.34375 L 0.421875 -2.71875 C 0.421875 -3.207031 0.503906 -3.640625 0.671875 -4.015625 C 0.835938 -4.398438 1.078125 -4.691406 1.390625 -4.890625 C 1.710938 -5.085938 2.070312 -5.1875 2.46875 -5.1875 C 2.882812 -5.1875 3.25 -5.085938 3.5625 -4.890625 C 3.875 -4.691406 4.113281 -4.40625 4.28125 -4.03125 C 4.445312 -3.65625 4.53125 -3.21875 4.53125 -2.71875 Z M 3.859375 -2.71875 C 3.859375 -3.332031 3.734375 -3.800781 3.484375 -4.125 C 3.242188 -4.445312 2.90625 -4.609375 2.46875 -4.609375 C 2.039062 -4.609375 1.703125 -4.445312 1.453125 -4.125 C 1.210938 -3.800781 1.09375 -3.347656 1.09375 -2.765625 L 1.09375 -2.390625 C 1.09375 -1.804688 1.210938 -1.34375 1.453125 -1 C 1.703125 -0.664062 2.046875 -0.5 2.484375 -0.5 C 2.921875 -0.5 3.253906 -0.65625 3.484375 -0.96875 C 3.722656 -1.289062 3.847656 -1.75 3.859375 -2.34375 Z M 3.859375 -2.71875 "/></g></g></g><g fill="#ffffff" fill-opacity="1"><g transform="translate(177.15794, 207.771648)"><g><path d="M 2.296875 -0.890625 L 3.75 -5.125 L 4.484375 -5.125 L 2.59375 0 L 2 0 L 0.09375 -5.125 L 0.828125 -5.125 Z M 2.296875 -0.890625 "/></g></g></g><g fill="#ffffff" fill-opacity="1"><g transform="translate(183.178811, 207.771648)"><g><path d="M 3.421875 -1.34375 L 1.28125 -1.34375 L 0.796875 0 L 0.09375 0 L 2.046875 -5.125 L 2.640625 -5.125 L 4.609375 0 L 3.90625 0 Z M 1.484375 -1.890625 L 3.21875 -1.890625 L 2.34375 -4.28125 Z M 1.484375 -1.890625 "/></g></g></g><g fill="#ffffff" fill-opacity="1"><g transform="translate(189.315698, 207.771648)"><g><path d="M 4.125 -4.5625 L 2.484375 -4.5625 L 2.484375 0 L 1.8125 0 L 1.8125 -4.5625 L 0.171875 -4.5625 L 0.171875 -5.125 L 4.125 -5.125 Z M 4.125 -4.5625 "/></g></g></g><g fill="#ffffff" fill-opacity="1"><g transform="translate(195.051801, 207.771648)"><g><path d="M 1.3125 0 L 0.640625 0 L 0.640625 -5.125 L 1.3125 -5.125 Z M 1.3125 0 "/></g></g></g><g fill="#ffffff" fill-opacity="1"><g transform="translate(198.450014, 207.771648)"><g><path d="M 2.296875 -0.890625 L 3.75 -5.125 L 4.484375 -5.125 L 2.59375 0 L 2 0 L 0.09375 -5.125 L 0.828125 -5.125 Z M 2.296875 -0.890625 "/></g></g></g><g fill="#ffffff" fill-opacity="1"><g transform="translate(204.470883, 207.771648)"><g><path d="M 3.484375 -2.359375 L 1.265625 -2.359375 L 1.265625 -0.546875 L 3.84375 -0.546875 L 3.84375 0 L 0.59375 0 L 0.59375 -5.125 L 3.8125 -5.125 L 3.8125 -4.5625 L 1.265625 -4.5625 L 1.265625 -2.921875 L 3.484375 -2.921875 Z M 3.484375 -2.359375 "/></g></g></g><g fill="#ffffff" fill-opacity="1"><g transform="translate(210.003085, 207.771648)"><g/></g></g><g fill="#ffffff" fill-opacity="1"><g transform="translate(213.225516, 207.771648)"><g><path d="M 2.109375 -2.28125 C 1.523438 -2.445312 1.097656 -2.648438 0.828125 -2.890625 C 0.566406 -3.140625 0.4375 -3.441406 0.4375 -3.796875 C 0.4375 -4.203125 0.597656 -4.535156 0.921875 -4.796875 C 1.242188 -5.054688 1.664062 -5.1875 2.1875 -5.1875 C 2.539062 -5.1875 2.851562 -5.117188 3.125 -4.984375 C 3.394531 -4.847656 3.601562 -4.660156 3.75 -4.421875 C 3.90625 -4.179688 3.984375 -3.921875 3.984375 -3.640625 L 3.3125 -3.640625 C 3.3125 -3.953125 3.210938 -4.195312 3.015625 -4.375 C 2.816406 -4.550781 2.539062 -4.640625 2.1875 -4.640625 C 1.851562 -4.640625 1.59375 -4.566406 1.40625 -4.421875 C 1.21875 -4.273438 1.125 -4.070312 1.125 -3.8125 C 1.125 -3.601562 1.210938 -3.425781 1.390625 -3.28125 C 1.566406 -3.132812 1.867188 -3 2.296875 -2.875 C 2.722656 -2.757812 3.054688 -2.628906 3.296875 -2.484375 C 3.535156 -2.335938 3.710938 -2.164062 3.828125 -1.96875 C 3.941406 -1.78125 4 -1.554688 4 -1.296875 C 4 -0.878906 3.835938 -0.546875 3.515625 -0.296875 C 3.191406 -0.046875 2.757812 0.078125 2.21875 0.078125 C 1.863281 0.078125 1.535156 0.0078125 1.234375 -0.125 C 0.929688 -0.257812 0.695312 -0.441406 0.53125 -0.671875 C 0.363281 -0.910156 0.28125 -1.179688 0.28125 -1.484375 L 0.953125 -1.484375 C 0.953125 -1.171875 1.066406 -0.925781 1.296875 -0.75 C 1.523438 -0.570312 1.832031 -0.484375 2.21875 -0.484375 C 2.570312 -0.484375 2.84375 -0.554688 3.03125 -0.703125 C 3.226562 -0.847656 3.328125 -1.046875 3.328125 -1.296875 C 3.328125 -1.546875 3.238281 -1.738281 3.0625 -1.875 C 2.882812 -2.007812 2.566406 -2.144531 2.109375 -2.28125 Z M 2.109375 -2.28125 "/></g></g></g><g fill="#ffffff" fill-opacity="1"><g transform="translate(218.93701, 207.771648)"><g><path d="M 4.53125 -2.390625 C 4.53125 -1.890625 4.445312 -1.453125 4.28125 -1.078125 C 4.113281 -0.703125 3.875 -0.414062 3.5625 -0.21875 C 3.25 -0.0195312 2.890625 0.078125 2.484375 0.078125 C 2.078125 0.078125 1.71875 -0.0195312 1.40625 -0.21875 C 1.09375 -0.425781 0.847656 -0.710938 0.671875 -1.078125 C 0.503906 -1.441406 0.421875 -1.863281 0.421875 -2.34375 L 0.421875 -2.71875 C 0.421875 -3.207031 0.503906 -3.640625 0.671875 -4.015625 C 0.835938 -4.398438 1.078125 -4.691406 1.390625 -4.890625 C 1.710938 -5.085938 2.070312 -5.1875 2.46875 -5.1875 C 2.882812 -5.1875 3.25 -5.085938 3.5625 -4.890625 C 3.875 -4.691406 4.113281 -4.40625 4.28125 -4.03125 C 4.445312 -3.65625 4.53125 -3.21875 4.53125 -2.71875 Z M 3.859375 -2.71875 C 3.859375 -3.332031 3.734375 -3.800781 3.484375 -4.125 C 3.242188 -4.445312 2.90625 -4.609375 2.46875 -4.609375 C 2.039062 -4.609375 1.703125 -4.445312 1.453125 -4.125 C 1.210938 -3.800781 1.09375 -3.347656 1.09375 -2.765625 L 1.09375 -2.390625 C 1.09375 -1.804688 1.210938 -1.34375 1.453125 -1 C 1.703125 -0.664062 2.046875 -0.5 2.484375 -0.5 C 2.921875 -0.5 3.253906 -0.65625 3.484375 -0.96875 C 3.722656 -1.289062 3.847656 -1.75 3.859375 -2.34375 Z M 3.859375 -2.71875 "/></g></g></g><g fill="#ffffff" fill-opacity="1"><g transform="translate(225.327024, 207.771648)"><g><path d="M 1.265625 -0.546875 L 3.703125 -0.546875 L 3.703125 0 L 0.59375 0 L 0.59375 -5.125 L 1.265625 -5.125 Z M 1.265625 -0.546875 "/></g></g></g><g fill="#ffffff" fill-opacity="1"><g transform="translate(230.641257, 207.771648)"><g><path d="M 3.421875 -1.34375 L 1.28125 -1.34375 L 0.796875 0 L 0.09375 0 L 2.046875 -5.125 L 2.640625 -5.125 L 4.609375 0 L 3.90625 0 Z M 1.484375 -1.890625 L 3.21875 -1.890625 L 2.34375 -4.28125 Z M 1.484375 -1.890625 "/></g></g></g><g fill="#ffffff" fill-opacity="1"><g transform="translate(236.778147, 207.771648)"><g><path d="M 2.46875 -2.078125 L 1.265625 -2.078125 L 1.265625 0 L 0.59375 0 L 0.59375 -5.125 L 2.28125 -5.125 C 2.863281 -5.125 3.304688 -4.988281 3.609375 -4.71875 C 3.921875 -4.457031 4.078125 -4.078125 4.078125 -3.578125 C 4.078125 -3.265625 3.988281 -2.988281 3.8125 -2.75 C 3.644531 -2.507812 3.410156 -2.332031 3.109375 -2.21875 L 4.3125 -0.046875 L 4.3125 0 L 3.578125 0 Z M 1.265625 -2.625 L 2.3125 -2.625 C 2.644531 -2.625 2.910156 -2.707031 3.109375 -2.875 C 3.304688 -3.050781 3.40625 -3.285156 3.40625 -3.578125 C 3.40625 -3.898438 3.3125 -4.144531 3.125 -4.3125 C 2.9375 -4.476562 2.660156 -4.5625 2.296875 -4.5625 L 1.265625 -4.5625 Z M 1.265625 -2.625 "/></g></g></g><g fill="#ffffff" fill-opacity="1"><g transform="translate(242.651364, 207.771648)"><g/></g></g><g fill="#ffffff" fill-opacity="1"><g transform="translate(245.8738, 207.771648)"><g><path d="M 2.109375 -2.28125 C 1.523438 -2.445312 1.097656 -2.648438 0.828125 -2.890625 C 0.566406 -3.140625 0.4375 -3.441406 0.4375 -3.796875 C 0.4375 -4.203125 0.597656 -4.535156 0.921875 -4.796875 C 1.242188 -5.054688 1.664062 -5.1875 2.1875 -5.1875 C 2.539062 -5.1875 2.851562 -5.117188 3.125 -4.984375 C 3.394531 -4.847656 3.601562 -4.660156 3.75 -4.421875 C 3.90625 -4.179688 3.984375 -3.921875 3.984375 -3.640625 L 3.3125 -3.640625 C 3.3125 -3.953125 3.210938 -4.195312 3.015625 -4.375 C 2.816406 -4.550781 2.539062 -4.640625 2.1875 -4.640625 C 1.851562 -4.640625 1.59375 -4.566406 1.40625 -4.421875 C 1.21875 -4.273438 1.125 -4.070312 1.125 -3.8125 C 1.125 -3.601562 1.210938 -3.425781 1.390625 -3.28125 C 1.566406 -3.132812 1.867188 -3 2.296875 -2.875 C 2.722656 -2.757812 3.054688 -2.628906 3.296875 -2.484375 C 3.535156 -2.335938 3.710938 -2.164062 3.828125 -1.96875 C 3.941406 -1.78125 4 -1.554688 4 -1.296875 C 4 -0.878906 3.835938 -0.546875 3.515625 -0.296875 C 3.191406 -0.046875 2.757812 0.078125 2.21875 0.078125 C 1.863281 0.078125 1.535156 0.0078125 1.234375 -0.125 C 0.929688 -0.257812 0.695312 -0.441406 0.53125 -0.671875 C 0.363281 -0.910156 0.28125 -1.179688 0.28125 -1.484375 L 0.953125 -1.484375 C 0.953125 -1.171875 1.066406 -0.925781 1.296875 -0.75 C 1.523438 -0.570312 1.832031 -0.484375 2.21875 -0.484375 C 2.570312 -0.484375 2.84375 -0.554688 3.03125 -0.703125 C 3.226562 -0.847656 3.328125 -1.046875 3.328125 -1.296875 C 3.328125 -1.546875 3.238281 -1.738281 3.0625 -1.875 C 2.882812 -2.007812 2.566406 -2.144531 2.109375 -2.28125 Z M 2.109375 -2.28125 "/></g></g></g><g fill="#ffffff" fill-opacity="1"><g transform="translate(251.585299, 207.771648)"><g><path d="M 4.53125 -2.390625 C 4.53125 -1.890625 4.445312 -1.453125 4.28125 -1.078125 C 4.113281 -0.703125 3.875 -0.414062 3.5625 -0.21875 C 3.25 -0.0195312 2.890625 0.078125 2.484375 0.078125 C 2.078125 0.078125 1.71875 -0.0195312 1.40625 -0.21875 C 1.09375 -0.425781 0.847656 -0.710938 0.671875 -1.078125 C 0.503906 -1.441406 0.421875 -1.863281 0.421875 -2.34375 L 0.421875 -2.71875 C 0.421875 -3.207031 0.503906 -3.640625 0.671875 -4.015625 C 0.835938 -4.398438 1.078125 -4.691406 1.390625 -4.890625 C 1.710938 -5.085938 2.070312 -5.1875 2.46875 -5.1875 C 2.882812 -5.1875 3.25 -5.085938 3.5625 -4.890625 C 3.875 -4.691406 4.113281 -4.40625 4.28125 -4.03125 C 4.445312 -3.65625 4.53125 -3.21875 4.53125 -2.71875 Z M 3.859375 -2.71875 C 3.859375 -3.332031 3.734375 -3.800781 3.484375 -4.125 C 3.242188 -4.445312 2.90625 -4.609375 2.46875 -4.609375 C 2.039062 -4.609375 1.703125 -4.445312 1.453125 -4.125 C 1.210938 -3.800781 1.09375 -3.347656 1.09375 -2.765625 L 1.09375 -2.390625 C 1.09375 -1.804688 1.210938 -1.34375 1.453125 -1 C 1.703125 -0.664062 2.046875 -0.5 2.484375 -0.5 C 2.921875 -0.5 3.253906 -0.65625 3.484375 -0.96875 C 3.722656 -1.289062 3.847656 -1.75 3.859375 -2.34375 Z M 3.859375 -2.71875 "/></g></g></g><g fill="#ffffff" fill-opacity="1"><g transform="translate(257.975313, 207.771648)"><g><path d="M 1.265625 -0.546875 L 3.703125 -0.546875 L 3.703125 0 L 0.59375 0 L 0.59375 -5.125 L 1.265625 -5.125 Z M 1.265625 -0.546875 "/></g></g></g><g fill="#ffffff" fill-opacity="1"><g transform="translate(263.289546, 207.771648)"><g><path d="M 4.203125 -5.125 L 4.203125 -1.640625 C 4.203125 -1.160156 4.050781 -0.765625 3.75 -0.453125 C 3.445312 -0.148438 3.035156 0.0195312 2.515625 0.0625 L 2.34375 0.078125 C 1.78125 0.078125 1.332031 -0.0703125 1 -0.375 C 0.664062 -0.6875 0.5 -1.101562 0.5 -1.625 L 0.5 -5.125 L 1.15625 -5.125 L 1.15625 -1.65625 C 1.15625 -1.28125 1.253906 -0.988281 1.453125 -0.78125 C 1.660156 -0.582031 1.957031 -0.484375 2.34375 -0.484375 C 2.71875 -0.484375 3.003906 -0.582031 3.203125 -0.78125 C 3.410156 -0.988281 3.515625 -1.28125 3.515625 -1.65625 L 3.515625 -5.125 Z M 4.203125 -5.125 "/></g></g></g><g fill="#ffffff" fill-opacity="1"><g transform="translate(269.39831, 207.771648)"><g><path d="M 4.125 -4.5625 L 2.484375 -4.5625 L 2.484375 0 L 1.8125 0 L 1.8125 -4.5625 L 0.171875 -4.5625 L 0.171875 -5.125 L 4.125 -5.125 Z M 4.125 -4.5625 "/></g></g></g><g fill="#ffffff" fill-opacity="1"><g transform="translate(275.134418, 207.771648)"><g><path d="M 1.3125 0 L 0.640625 0 L 0.640625 -5.125 L 1.3125 -5.125 Z M 1.3125 0 "/></g></g></g><g fill="#ffffff" fill-opacity="1"><g transform="translate(278.532635, 207.771648)"><g><path d="M 4.53125 -2.390625 C 4.53125 -1.890625 4.445312 -1.453125 4.28125 -1.078125 C 4.113281 -0.703125 3.875 -0.414062 3.5625 -0.21875 C 3.25 -0.0195312 2.890625 0.078125 2.484375 0.078125 C 2.078125 0.078125 1.71875 -0.0195312 1.40625 -0.21875 C 1.09375 -0.425781 0.847656 -0.710938 0.671875 -1.078125 C 0.503906 -1.441406 0.421875 -1.863281 0.421875 -2.34375 L 0.421875 -2.71875 C 0.421875 -3.207031 0.503906 -3.640625 0.671875 -4.015625 C 0.835938 -4.398438 1.078125 -4.691406 1.390625 -4.890625 C 1.710938 -5.085938 2.070312 -5.1875 2.46875 -5.1875 C 2.882812 -5.1875 3.25 -5.085938 3.5625 -4.890625 C 3.875 -4.691406 4.113281 -4.40625 4.28125 -4.03125 C 4.445312 -3.65625 4.53125 -3.21875 4.53125 -2.71875 Z M 3.859375 -2.71875 C 3.859375 -3.332031 3.734375 -3.800781 3.484375 -4.125 C 3.242188 -4.445312 2.90625 -4.609375 2.46875 -4.609375 C 2.039062 -4.609375 1.703125 -4.445312 1.453125 -4.125 C 1.210938 -3.800781 1.09375 -3.347656 1.09375 -2.765625 L 1.09375 -2.390625 C 1.09375 -1.804688 1.210938 -1.34375 1.453125 -1 C 1.703125 -0.664062 2.046875 -0.5 2.484375 -0.5 C 2.921875 -0.5 3.253906 -0.65625 3.484375 -0.96875 C 3.722656 -1.289062 3.847656 -1.75 3.859375 -2.34375 Z M 3.859375 -2.71875 "/></g></g></g><g fill="#ffffff" fill-opacity="1"><g transform="translate(284.922649, 207.771648)"><g><path d="M 4.53125 0 L 3.84375 0 L 1.265625 -3.953125 L 1.265625 0 L 0.59375 0 L 0.59375 -5.125 L 1.265625 -5.125 L 3.859375 -1.15625 L 3.859375 -5.125 L 4.53125 -5.125 Z M 4.53125 0 "/></g></g></g><g fill="#ffffff" fill-opacity="1"><g transform="translate(291.495476, 207.771648)"><g><path d="M 2.109375 -2.28125 C 1.523438 -2.445312 1.097656 -2.648438 0.828125 -2.890625 C 0.566406 -3.140625 0.4375 -3.441406 0.4375 -3.796875 C 0.4375 -4.203125 0.597656 -4.535156 0.921875 -4.796875 C 1.242188 -5.054688 1.664062 -5.1875 2.1875 -5.1875 C 2.539062 -5.1875 2.851562 -5.117188 3.125 -4.984375 C 3.394531 -4.847656 3.601562 -4.660156 3.75 -4.421875 C 3.90625 -4.179688 3.984375 -3.921875 3.984375 -3.640625 L 3.3125 -3.640625 C 3.3125 -3.953125 3.210938 -4.195312 3.015625 -4.375 C 2.816406 -4.550781 2.539062 -4.640625 2.1875 -4.640625 C 1.851562 -4.640625 1.59375 -4.566406 1.40625 -4.421875 C 1.21875 -4.273438 1.125 -4.070312 1.125 -3.8125 C 1.125 -3.601562 1.210938 -3.425781 1.390625 -3.28125 C 1.566406 -3.132812 1.867188 -3 2.296875 -2.875 C 2.722656 -2.757812 3.054688 -2.628906 3.296875 -2.484375 C 3.535156 -2.335938 3.710938 -2.164062 3.828125 -1.96875 C 3.941406 -1.78125 4 -1.554688 4 -1.296875 C 4 -0.878906 3.835938 -0.546875 3.515625 -0.296875 C 3.191406 -0.046875 2.757812 0.078125 2.21875 0.078125 C 1.863281 0.078125 1.535156 0.0078125 1.234375 -0.125 C 0.929688 -0.257812 0.695312 -0.441406 0.53125 -0.671875 C 0.363281 -0.910156 0.28125 -1.179688 0.28125 -1.484375 L 0.953125 -1.484375 C 0.953125 -1.171875 1.066406 -0.925781 1.296875 -0.75 C 1.523438 -0.570312 1.832031 -0.484375 2.21875 -0.484375 C 2.570312 -0.484375 2.84375 -0.554688 3.03125 -0.703125 C 3.226562 -0.847656 3.328125 -1.046875 3.328125 -1.296875 C 3.328125 -1.546875 3.238281 -1.738281 3.0625 -1.875 C 2.882812 -2.007812 2.566406 -2.144531 2.109375 -2.28125 Z M 2.109375 -2.28125 "/></g></g></g><path fill="#ffffff" d="M 218.289062 130.554688 L 221.191406 130.554688 L 221.191406 133.457031 L 218.289062 133.457031 Z M 218.289062 134.324219 L 221.191406 134.324219 L 221.191406 137.226562 L 218.289062 137.226562 Z M 214.019531 134.324219 L 216.921875 134.324219 L 216.921875 137.226562 L 214.019531 137.226562 Z M 214.019531 130.554688 L 216.921875 130.554688 L 216.921875 133.457031 L 214.019531 133.457031 Z M 217.21875 115.648438 L 194.597656 142.585938 C 194.738281 142.914062 194.890625 143.246094 195.042969 143.570312 L 217.21875 122.757812 L 245.785156 146.441406 C 248.570312 147.035156 251.105469 147.039062 253.269531 146.433594 L 233.605469 129.667969 L 233.605469 124.339844 L 231.273438 124.339844 L 231.273438 127.675781 Z M 217.21875 115.648438 " fill-opacity="1" fill-rule="evenodd"/><path fill="#ffffff" d="M 254.414062 131.3125 L 260.496094 137.96875 C 260.367188 138.59375 260.214844 139.183594 260.027344 139.742188 L 253.03125 132.519531 Z M 248 124.296875 L 253.542969 130.359375 L 252.136719 131.585938 L 245.671875 124.882812 Z M 239.507812 118.492188 L 243.1875 119.03125 L 247.128906 123.347656 L 244.761719 123.945312 Z M 252.191406 133.253906 L 259.515625 141.042969 C 259.140625 141.855469 258.695312 142.585938 258.183594 143.226562 L 249.960938 135.199219 Z M 244.535156 125.171875 L 251.300781 132.316406 L 249.023438 134.304688 L 240.542969 126.179688 Z M 231.261719 117.292969 L 237.996094 118.273438 L 243.640625 124.222656 L 239.574219 125.25 Z M 249.125 135.929688 L 257.453125 144.039062 C 256.695312 144.792969 255.824219 145.394531 254.855469 145.847656 C 252.25 143.671875 246.839844 138.972656 246.238281 138.449219 Z M 239.402344 126.46875 L 248.199219 135.027344 L 245.253906 137.597656 L 234.800781 128.515625 L 234.800781 127.628906 Z M 219.996094 115.648438 L 229.753906 117.070312 L 238.449219 125.535156 L 234.800781 126.453125 L 234.800781 123.101562 L 230.023438 123.101562 L 230.023438 124.363281 Z M 219.996094 115.648438 " fill-opacity="1" fill-rule="evenodd"/><path fill="#ffbd59" d="M 218.222656 113.671875 L 215.988281 106.15625 L 214.261719 115.160156 C 213.476562 115.28125 212.703125 115.46875 211.9375 115.710938 L 206.238281 109.144531 L 208.203125 117.445312 C 207.335938 117.988281 206.507812 118.605469 205.734375 119.289062 L 198.351562 115.820312 L 203.035156 122.246094 C 202.359375 123.164062 201.761719 124.148438 201.257812 125.179688 L 194.019531 125.480469 L 200 128.589844 C 199.851562 129.164062 199.734375 129.742188 199.644531 130.335938 C 199.539062 131.027344 199.484375 131.707031 199.464844 132.371094 L 192.804688 134.625 L 198.65625 135.511719 L 199.550781 134.398438 L 216.992188 113.472656 Z M 224.886719 114.703125 L 225.871094 108.0625 L 222.011719 114.257812 Z M 232.195312 115.828125 L 234.753906 112.875 L 230.363281 115.546875 Z M 232.195312 115.828125 " fill-opacity="1" fill-rule="evenodd"/><path fill="#ffffff" d="M 212.21875 165.625 C 192.332031 158.539062 181.96875 136.644531 189.066406 116.71875 C 196.164062 96.800781 218.042969 86.398438 237.929688 93.480469 C 257.675781 100.519531 268.03125 122.160156 261.222656 141.96875 C 265.921875 123.203125 254.605469 103.269531 236.710938 96.894531 C 218.707031 90.480469 198.960938 99.738281 192.601562 117.578125 C 187.363281 132.277344 192.847656 148.210938 205.011719 156.957031 C 213.496094 161.5625 220.257812 161.695312 225.6875 158.375 C 222.417969 158.589844 219.167969 158.683594 216.042969 157.875 C 205.382812 155.113281 202.984375 142.765625 214.257812 139.511719 C 218.59375 138.261719 227.832031 141.410156 235.035156 144.195312 C 245.023438 148.058594 249.445312 150.546875 260.195312 144.625 L 260.191406 144.632812 C 252.304688 163.082031 231.339844 172.441406 212.21875 165.625 " fill-opacity="1" fill-rule="evenodd"/></svg>